<?xml version="1.0" encoding="utf-8"?>
<svg viewBox="258.6 -24.628 55.197 57.032" xmlns="http://www.w3.org/2000/svg">
  <path d="M 305.722 -16.291 C 295.408 -26.948 278.906 -27.383 268.071 -17.623 L 269.294 -16.359 C 274.138 -20.682 280.158 -22.873 286.196 -22.873 C 292.83 -22.873 299.465 -20.264 304.516 -15.045 C 314.617 -4.607 314.617 12.376 304.516 22.814 C 294.414 33.253 277.977 33.252 267.876 22.814 C 258.248 12.866 257.828 -3.007 266.551 -13.513 L 265.326 -14.778 C 255.935 -3.582 256.375 13.424 266.669 24.06 C 272.052 29.622 279.124 32.404 286.196 32.404 C 293.267 32.404 300.338 29.622 305.722 24.06 C 316.489 12.935 316.489 -5.166 305.722 -16.291" style=""/>
</svg>