<?xml version="1.0" encoding="utf-8"?>
<svg viewBox="440.445 -43.358 127.083 95.719" xmlns="http://www.w3.org/2000/svg">
  <path d="M 511.081 13.148 C 511.081 7.173 513.911 0.582 518.652 -2.888 C 519.095 -3.213 519.567 -3.524 520.055 -3.816 C 522.774 -5.437 525.86 -6.293 528.976 -6.293 C 538.258 -6.293 546.093 1.19 546.811 10.744 L 546.925 11.652 L 547.801 11.62 C 557.499 11.624 565.688 20.414 565.688 30.818 C 565.688 41.224 557.493 50.017 547.793 50.017 C 543.721 50.017 540.203 48.834 537.337 46.199 L 537.075 46.111 L 536.141 46.111 L 535.795 46.235 C 534.024 47.655 530.337 50.533 524.483 50.533 C 520.185 50.533 517.223 49.089 513.562 45.304 L 512.925 44.628 L 512.274 45.26 C 509.107 48.383 504.993 50.028 500.379 50.028 C 490.511 50.028 482.483 41.779 482.483 31.641 C 482.483 28.802 483.109 26.053 484.343 23.472 C 484.563 23.012 484.805 22.553 485.065 22.109 C 488.344 16.499 494.003 13.148 500.313 13.148 C 501.849 13.148 503.77 13.361 504.766 13.756 L 504.766 11.788 C 503.77 11.431 501.844 11.246 500.313 11.246 C 493.353 11.246 487.071 14.94 483.456 21.125 C 483.169 21.615 482.918 22.121 482.675 22.628 C 481.315 25.475 480.633 28.506 480.633 31.64 C 480.633 42.826 489.491 51.929 500.374 51.929 C 505.16 51.929 509.467 50.313 512.887 47.248 C 516.627 50.915 519.943 52.361 524.483 52.361 C 530.592 52.361 534.516 49.5 536.566 47.874 C 539.663 50.524 543.531 51.921 547.792 51.921 C 558.491 51.921 567.528 42.257 567.528 30.819 C 567.528 19.657 558.921 10.185 548.563 9.734 C 547.379 -0.388 538.932 -8.196 528.974 -8.196 C 525.534 -8.196 522.131 -7.251 519.133 -5.463 C 518.594 -5.143 518.074 -4.799 517.585 -4.44 C 512.358 -0.613 509.236 6.559 509.236 13.149 C 509.236 13.178 509.239 13.149 509.239 13.178" style=""/>
  <path d="M 511.462 -19.669 L 516.426 -24.799 C 516.769 -25.153 516.769 -25.727 516.426 -26.081 C 516.083 -26.435 515.528 -26.435 515.185 -26.081 L 510.221 -20.951 C 509.878 -20.597 509.878 -20.023 510.221 -19.669 C 510.563 -19.315 511.119 -19.315 511.462 -19.669" style=""/>
  <path d="M 452.759 4.06 L 441.291 4.313 C 440.813 4.331 440.437 4.741 440.445 5.236 C 440.454 5.743 440.863 6.144 441.353 6.126 L 452.821 5.872 C 453.299 5.856 453.675 5.445 453.667 4.95 C 453.659 4.444 453.25 4.043 452.759 4.06" style=""/>
  <path d="M 486.842 -29.695 C 487.327 -29.695 487.838 -30.101 487.838 -30.601 L 487.838 -42.451 C 487.838 -42.952 487.327 -43.358 486.842 -43.358 C 486.357 -43.358 485.846 -42.952 485.846 -42.451 L 485.846 -30.601 C 485.846 -30.101 486.357 -29.695 486.842 -29.695" style=""/>
  <path d="M 463.369 28.741 C 463.027 28.387 462.471 28.387 462.128 28.741 L 457.164 33.87 C 456.82 34.224 456.82 34.798 457.164 35.153 C 457.506 35.507 458.062 35.507 458.405 35.153 L 463.369 30.023 C 463.711 29.669 463.711 29.094 463.369 28.741" style=""/>
  <path d="M 462.127 -19.669 C 462.47 -19.315 463.026 -19.315 463.368 -19.669 C 463.711 -20.023 463.711 -20.597 463.368 -20.951 L 458.404 -26.081 C 458.061 -26.435 457.505 -26.435 457.163 -26.081 C 456.82 -25.727 456.82 -25.153 457.163 -24.799 L 462.127 -19.669 Z" style=""/>
  <path d="M 504.002 -13.244 C 494.913 -22.636 480.371 -23.018 470.822 -14.417 L 471.9 -13.304 C 476.168 -17.113 481.474 -19.045 486.795 -19.045 C 492.641 -19.045 498.488 -16.745 502.939 -12.146 C 504.556 -10.475 505.875 -8.614 506.903 -6.632 L 507.965 -7.853 C 506.909 -9.783 505.592 -11.601 504.002 -13.244" style=""/>
  <path d="M 470.65 21.218 C 462.166 12.452 461.796 -1.536 469.483 -10.795 L 468.403 -11.911 C 460.129 -2.044 460.516 12.942 469.587 22.316 C 471.827 24.63 474.401 26.391 477.148 27.613 L 478.207 26.394 C 475.455 25.245 472.878 23.519 470.65 21.218" style=""/>
</svg>