<?xml version="1.0" encoding="utf-8"?>
<svg viewBox="307.688 520.78 83.73 56.468" xmlns="http://www.w3.org/2000/svg">
  <path d="M337.031,540.683c0-5.571,2.727-11.717,7.294-14.953c0.426-0.302,0.881-0.593,1.353-0.864 c2.619-1.513,5.592-2.312,8.595-2.312c8.942,0,16.489,6.979,17.183,15.887l0.109,0.847l0.845-0.03 c9.342,0.004,17.233,8.2,17.233,17.901c0,9.703-7.896,17.901-17.241,17.901c-3.923,0-7.312-1.151-10.073-3.608l-0.253-0.131h-0.9 l-0.334,0.165c-1.705,1.324-5.256,4.032-10.896,4.032c-4.142,0-6.995-1.335-10.523-4.864l-0.612-0.624l-0.627,0.592 c-3.053,2.912-7.016,4.449-11.461,4.449c-9.508,0-17.241-7.693-17.241-17.145c0-2.647,0.603-5.211,1.792-7.618 c0.212-0.428,0.445-0.856,0.695-1.27c3.159-5.231,8.512-8.355,14.592-8.355c1.479,0,3.19,0.198,4.19,0.567v-1.836 c-1-0.334-2.716-0.506-4.19-0.506c-6.707,0-12.709,3.444-16.191,9.212c-0.276,0.457-0.494,0.929-0.727,1.402 c-1.312,2.653-1.955,5.479-1.955,8.402c0,10.431,8.541,18.919,19.025,18.919c4.611,0,8.765-1.506,12.059-4.365 c3.602,3.42,6.799,4.77,11.173,4.77c5.885,0,9.667-2.668,11.642-4.186c2.982,2.471,6.709,3.773,10.815,3.773 c10.307,0,19.016-9.01,19.016-19.676c0-10.408-8.292-19.24-18.271-19.66c-1.143-9.439-9.279-16.719-18.872-16.719 c-3.314,0-6.593,0.881-9.482,2.548c-0.519,0.299-1.02,0.619-1.491,0.954c-5.035,3.568-8.043,10.255-8.043,16.401 c0,0.027,0.003,0,0.003,0.027"/>
</svg>