<?xml version="1.0" encoding="utf-8"?>
<svg viewBox="309.317 365.584 83.73 77.479" xmlns="http://www.w3.org/2000/svg">
  <path fill="none" stroke="#000000" stroke-width="2" stroke-miterlimit="10" d="M355.166,404.62l-12.92,20.634 c-0.129,0.189,0.011,0.444,0.24,0.435l9.581-0.422c0.203-0.009,0.347,0.196,0.27,0.384l-6.092,17.026 c-0.127,0.307,0.293,0.537,0.484,0.265l14.016-22.192c0.13-0.184-0.002-0.437-0.227-0.437h-9.085c-0.184,0-0.316-0.173-0.268-0.349 l4.497-15.114C355.743,404.547,355.343,404.364,355.166,404.62"/>
  <path d="M374.775,382.303c-1.142-9.439-9.279-16.719-18.872-16.719c-3.314,0-6.593,0.881-9.482,2.549 c-0.519,0.298-1.021,0.619-1.491,0.953c-5.036,3.568-8.043,10.255-8.043,16.401c0,0.028,0.002,0,0.003,0.028l1.772-0.028 c0-5.571,2.727-11.717,7.294-14.953c0.426-0.302,0.88-0.593,1.352-0.864c2.619-1.512,5.592-2.311,8.595-2.311 c8.943,0,16.49,6.978,17.182,15.886l0.109,0.847l0.845-0.03c9.343,0.004,17.233,8.2,17.233,17.901c0,9.704-7.895,17.9-17.24,17.9 c-3.923,0-6.839-1.071-9.381-2.946l-0.27,0.208l-1,0.865c2.955,2.386,6.618,3.648,10.65,3.648c10.307,0,19.016-9.01,19.016-19.676 C393.047,391.555,384.755,382.723,374.775,382.303"/>
  <path d="M339.814,415.426c-3.051,2.912-7.015,4.448-11.461,4.448c-9.507,0-17.241-7.692-17.241-17.143 c0-2.647,0.603-5.211,1.792-7.619c0.212-0.429,0.446-0.856,0.696-1.27c3.159-5.232,8.512-8.355,14.591-8.355 c1.479,0,3.19,0.198,4.19,0.567v-1.836c-1-0.334-2.715-0.506-4.19-0.506c-6.706,0-12.708,3.444-16.191,9.212 c-0.276,0.457-0.494,0.929-0.727,1.402c-1.311,2.653-1.956,5.48-1.956,8.402c0,10.431,8.541,18.918,19.026,18.918 c4.602,0,8.747-1.502,12.038-4.35L339.814,415.426z"/>
</svg>