<?xml version="1.0" encoding="utf-8"?>
<svg viewBox="71.915 199.303 104.132 86.266" xmlns="http://www.w3.org/2000/svg">
  <path d="M113.612,206.442c-9.127-9.127-23.729-9.498-33.317-1.14l1.082,1.082c4.286-3.702,9.614-5.579,14.957-5.579 c5.87,0,11.741,2.235,16.211,6.704c1.623,1.624,2.948,3.433,3.981,5.359l1.066-1.187 C116.531,209.806,115.208,208.039,113.612,206.442"/>
  <path d="M80.122,239.933c-8.519-8.519-8.891-22.113-1.172-31.111l-1.084-1.084c-8.309,9.589-7.92,24.153,1.189,33.262 c2.249,2.249,4.834,3.961,7.592,5.148l1.063-1.184C84.947,243.847,82.359,242.17,80.122,239.933"/>
  <path d="M121.662,224.487c0-5.571,2.727-11.717,7.294-14.953c0.426-0.302,0.881-0.593,1.352-0.864 c2.62-1.513,5.592-2.312,8.595-2.312c8.943,0,16.49,6.979,17.183,15.887l0.109,0.847l0.845-0.03 c9.342,0.004,17.233,8.2,17.233,17.901c0,9.703-7.896,17.901-17.241,17.901c-3.923,0-7.312-1.152-10.073-3.608l-0.253-0.131h-0.899 l-0.334,0.165c-1.706,1.324-5.256,4.032-10.896,4.032c-4.143,0-6.995-1.335-10.523-4.864l-0.613-0.624l-0.627,0.592 c-3.052,2.912-7.015,4.448-11.461,4.448c-9.507,0-17.241-7.692-17.241-17.144c0-2.647,0.603-5.211,1.792-7.618 c0.212-0.428,0.446-0.856,0.696-1.27c3.159-5.231,8.511-8.355,14.591-8.355c1.479,0,3.19,0.198,4.19,0.567v-1.836 c-1-0.334-2.716-0.506-4.19-0.506c-6.707,0-12.709,3.444-16.191,9.212c-0.276,0.457-0.494,0.929-0.728,1.402 c-1.311,2.653-1.955,5.479-1.955,8.402c0,10.431,8.541,18.918,19.026,18.918c4.611,0,8.764-1.506,12.058-4.365 c3.602,3.42,6.799,4.769,11.173,4.769c5.885,0,9.667-2.668,11.642-4.185c2.982,2.471,6.709,3.774,10.815,3.774 c10.307,0,19.016-9.01,19.016-19.676c0-10.408-8.292-19.24-18.272-19.66c-1.142-9.439-9.279-16.719-18.872-16.719 c-3.314,0-6.593,0.881-9.482,2.548c-0.518,0.299-1.02,0.619-1.491,0.954c-5.036,3.568-8.043,10.255-8.043,16.401 c0,0.027,0.003,0,0.003,0.027"/>
  <path d="M107.407,278.794c-0.149,0-0.301-0.033-0.443-0.104c-0.495-0.246-0.697-0.846-0.452-1.34l4.737-9.552 c0.246-0.494,0.845-0.696,1.34-0.451c0.495,0.245,0.697,0.845,0.452,1.34l-4.737,9.551 C108.129,278.589,107.775,278.794,107.407,278.794"/>
  <path d="M123.472,278.794c-0.149,0-0.301-0.033-0.443-0.104c-0.495-0.246-0.697-0.846-0.452-1.34l4.737-9.552 c0.246-0.494,0.846-0.696,1.34-0.451c0.495,0.245,0.697,0.845,0.452,1.34l-4.737,9.551 C124.194,278.589,123.84,278.794,123.472,278.794"/>
  <path d="M139.472,278.794c-0.149,0-0.301-0.033-0.443-0.104c-0.495-0.246-0.697-0.846-0.452-1.34l4.737-9.552 c0.245-0.494,0.846-0.696,1.34-0.451c0.495,0.245,0.697,0.845,0.452,1.34l-4.737,9.551 C140.194,278.589,139.84,278.794,139.472,278.794"/>
  <path d="M112.124,285.569c-0.149,0-0.3-0.033-0.443-0.104c-0.495-0.246-0.697-0.845-0.452-1.34l5.736-11.552 c0.246-0.495,0.845-0.696,1.341-0.452c0.494,0.246,0.696,0.845,0.451,1.341l-5.736,11.551 C112.846,285.365,112.492,285.569,112.124,285.569"/>
  <path d="M144.276,285.569c-0.149,0-0.3-0.033-0.443-0.104c-0.495-0.246-0.697-0.846-0.452-1.34l5.737-11.552 c0.245-0.495,0.845-0.696,1.34-0.452c0.495,0.246,0.697,0.846,0.452,1.341l-5.737,11.551 C144.998,285.365,144.644,285.569,144.276,285.569"/>
  <path d="M128.2,285.569c-0.149,0-0.3-0.033-0.443-0.104c-0.495-0.246-0.697-0.846-0.452-1.34l5.737-11.552 c0.246-0.495,0.845-0.696,1.34-0.452c0.495,0.246,0.697,0.846,0.452,1.341l-5.737,11.551 C128.922,285.365,128.568,285.569,128.2,285.569"/>
  <path d="M155.472,278.794c-0.149,0-0.301-0.033-0.443-0.104c-0.495-0.246-0.697-0.846-0.452-1.34l4.737-9.552 c0.246-0.494,0.845-0.696,1.34-0.451c0.495,0.245,0.697,0.845,0.452,1.34l-4.737,9.551 C156.194,278.589,155.84,278.794,155.472,278.794"/>
</svg>