<?xml version="1.0" encoding="utf-8"?>
<svg viewBox="533.798 386.495 65.619 39.258" xmlns="http://www.w3.org/2000/svg">
  <path d="M543.773,403.211h-9.12c-0.471,0-0.855-0.385-0.855-0.857c0-0.471,0.385-0.856,0.855-0.856h9.12 c0.472,0,0.856,0.385,0.856,0.856C544.629,402.826,544.245,403.211,543.773,403.211"/>
  <path d="M571.525,418.085h-19.121c-0.471,0-0.855-0.385-0.855-0.856c0-0.471,0.385-0.856,0.855-0.856h19.121 c0.472,0,0.856,0.385,0.856,0.856C572.381,417.7,571.997,418.085,571.525,418.085"/>
  <path d="M563.338,403.125h-15.121c-0.471,0-0.855-0.385-0.855-0.855s0.385-0.855,0.855-0.855h15.121 c0.472,0,0.857,0.385,0.857,0.855S563.81,403.125,563.338,403.125"/>
  <path d="M545.98,411.211h-6.119c-0.472,0-0.856-0.385-0.856-0.856c0-0.471,0.385-0.856,0.856-0.856h6.119 c0.472,0,0.857,0.385,0.857,0.856C546.837,410.826,546.452,411.211,545.98,411.211"/>
  <path d="M568.397,396.836h-16.119c-0.472,0-0.857-0.385-0.857-0.856c0-0.471,0.385-0.855,0.857-0.855h16.119 c0.472,0,0.856,0.385,0.856,0.855C569.254,396.452,568.869,396.836,568.397,396.836"/>
  <path d="M599.417,418.873c0,2.542-0.99,4.933-2.788,6.732c0,0-0.806,0.405-1.347-0.124c-0.541-0.529-0.067-1.29-0.067-1.29 c1.42-1.421,2.202-3.309,2.202-5.317c0-4.13-3.347-7.673-7.47-7.7c-0.014,0-37.918-0.05-37.918-0.05s-0.867-0.21-0.867-1.012 c0-0.802,0.867-0.988,0.867-0.988s37.923,0.059,37.945,0.061C595.19,409.227,599.417,413.65,599.417,418.873"/>
  <path d="M593.792,393.375c0-2.542-0.99-4.933-2.787-6.731c0,0-0.807-0.406-1.348,0.124c-0.541,0.529-0.066,1.29-0.066,1.29 c1.42,1.421,2.201,3.31,2.201,5.317c0,4.13-3.346,7.674-7.469,7.701c-0.014,0-15.917,0.049-15.917,0.049s-0.867,0.211-0.867,1.012 c0,0.803,0.867,0.988,0.867,0.988s15.923-0.059,15.945-0.06C589.566,403.022,593.792,398.598,593.792,393.375"/>
</svg>