<?xml version="1.0" encoding="utf-8"?>
<svg viewBox="538.812 229.227 66.249 33.32" xmlns="http://www.w3.org/2000/svg">
  <path d="M590.79,246.484h-51.122c-0.471,0-0.856-0.385-0.856-0.856c0-0.471,0.385-0.856,0.856-0.856h51.122 c0.471,0,0.855,0.385,0.855,0.856C591.646,246.1,591.261,246.484,590.79,246.484"/>
  <path d="M596.79,254.516h-47.122c-0.471,0-0.856-0.385-0.856-0.856s0.385-0.856,0.856-0.856h47.122c0.471,0,0.855,0.385,0.855,0.856 S597.261,254.516,596.79,254.516"/>
  <path d="M576.334,262.547h-15.121c-0.471,0-0.856-0.385-0.856-0.856s0.385-0.856,0.856-0.856h15.121 c0.472,0,0.857,0.385,0.857,0.856S576.806,262.547,576.334,262.547"/>
  <path d="M551.629,230.939h44.122c0.471,0,0.856-0.385,0.856-0.856c0-0.471-0.385-0.856-0.856-0.856h-44.122V230.939z"/>
  <path d="M539.82,230.939h8.121v-1.712h-8.121c-0.471,0-0.857,0.385-0.857,0.856C538.964,230.553,539.349,230.939,539.82,230.939"/>
  <path d="M549.085,238.97h55.121c0.471,0,0.855-0.385,0.855-0.856c0-0.471-0.385-0.856-0.855-0.856h-55.121 c-0.471,0-0.856,0.385-0.856,0.856C548.229,238.585,548.614,238.97,549.085,238.97"/>
</svg>